  0
SECTION
  2
BLOCKS
  0
ENDSEC
  0
SECTION
  2
ENTITIES
  0
LINE
  8
0
 10
-31.7398
 20
-52.7115
 11
-31.7364
 21
-52.7116
  0
LINE
  8
0
 10
-31.7364
 20
-52.7116
 11
-31.2873
 21
-52.6581
  0
LINE
  8
0
 10
-31.2873
 20
-52.6581
 11
-29.7099
 21
-52.4716
  0
LINE
  8
0
 10
-29.7099
 20
-52.4716
 11
-29.6935
 21
-52.468
  0
LINE
  8
0
 10
-29.6935
 20
-52.468
 11
-29.6838
 21
-52.4668
  0
LINE
  8
0
 10
-29.6838
 20
-52.4668
 11
-28.9621
 21
-52.3042
  0
LINE
  8
0
 10
-28.9621
 20
-52.3042
 11
-27.4524
 21
-51.9661
  0
LINE
  8
0
 10
-27.4524
 20
-51.9661
 11
-27.4268
 21
-51.9582
  0
LINE
  8
0
 10
-27.4268
 20
-51.9582
 11
-27.4095
 21
-51.9543
  0
LINE
  8
0
 10
-27.4095
 20
-51.9543
 11
-26.5128
 21
-51.6766
  0
LINE
  8
0
 10
-26.5128
 20
-51.6766
 11
-25.0086
 21
-51.213
  0
LINE
  8
0
 10
-25.0086
 20
-51.213
 11
-24.9737
 21
-51.1998
  0
LINE
  8
0
 10
-24.9737
 20
-51.1998
 11
-24.9471
 21
-51.1916
  0
LINE
  8
0
 10
-24.9471
 20
-51.1916
 11
-23.8978
 21
-50.7925
  0
LINE
  8
0
 10
-23.8978
 20
-50.7925
 11
-22.4114
 21
-50.2297
  0
LINE
  8
0
 10
-22.4114
 20
-50.2297
 11
-22.3346
 21
-50.1979
  0
LINE
  8
0
 10
-22.3346
 20
-50.1979
 11
-22.3302
 21
-50.1962
  0
LINE
  8
0
 10
-22.3302
 20
-50.1962
 11
-20.5625
 21
-49.464
  0
LINE
  8
0
 10
-20.5625
 20
-49.464
 11
-19.3822
 21
-48.942
  0
LINE
  8
0
 10
-19.3822
 20
-48.942
 11
-17.9262
 21
-48.301
  0
LINE
  8
0
 10
-17.9262
 20
-48.301
 11
-17.8747
 21
-48.2755
  0
LINE
  8
0
 10
-17.8747
 20
-48.2755
 11
-17.8249
 21
-48.2534
  0
LINE
  8
0
 10
-17.8249
 20
-48.2534
 11
-16.5306
 21
-47.6082
  0
LINE
  8
0
 10
-16.5306
 20
-47.6082
 11
-15.1215
 21
-46.9088
  0
LINE
  8
0
 10
-15.1215
 20
-46.9088
 11
-15.0638
 21
-46.877
  0
LINE
  8
0
 10
-15.0638
 20
-46.877
 11
-15.0002
 21
-46.8453
  0
LINE
  8
0
 10
-15.0002
 20
-46.8453
 11
-13.6069
 21
-46.0765
  0
LINE
  8
0
 10
-13.6069
 20
-46.0765
 11
-12.2627
 21
-45.3379
  0
LINE
  8
0
 10
-12.2627
 20
-45.3379
 11
-12.1998
 21
-45.3
  0
LINE
  8
0
 10
-12.1998
 20
-45.3
 11
-12.1221
 21
-45.2572
  0
LINE
  8
0
 10
-12.1221
 20
-45.2572
 11
-10.6563
 21
-44.3716
  0
LINE
  8
0
 10
-10.6563
 20
-44.3716
 11
-9.38281
 21
-43.6056
  0
LINE
  8
0
 10
-9.38281
 20
-43.6056
 11
-9.31596
 21
-43.5619
  0
LINE
  8
0
 10
-9.31596
 20
-43.5619
 11
-9.22429
 21
-43.5065
  0
LINE
  8
0
 10
-9.22429
 20
-43.5065
 11
-7.70958
 21
-42.5108
  0
LINE
  8
0
 10
-7.70958
 20
-42.5108
 11
-6.51486
 21
-41.7292
  0
LINE
  8
0
 10
-6.51486
 20
-41.7292
 11
-6.44562
 21
-41.68
  0
LINE
  8
0
 10
-6.44562
 20
-41.68
 11
-6.34038
 21
-41.6109
  0
LINE
  8
0
 10
-6.34038
 20
-41.6109
 11
-4.80421
 21
-40.5152
  0
LINE
  8
0
 10
-4.80421
 20
-40.5152
 11
-3.69194
 21
-39.7258
  0
LINE
  8
0
 10
-3.69194
 20
-39.7258
 11
-3.62138
 21
-39.6715
  0
LINE
  8
0
 10
-3.62138
 20
-39.6715
 11
-3.50406
 21
-39.5878
  0
LINE
  8
0
 10
-3.50406
 20
-39.5878
 11
-1.98303
 21
-38.4102
  0
LINE
  8
0
 10
-1.98303
 20
-38.4102
 11
-0.947067
 21
-37.6127
  0
LINE
  8
0
 10
-0.947067
 20
-37.6127
 11
-0.875595
 21
-37.5529
  0
LINE
  8
0
 10
-0.875595
 20
-37.5529
 11
-0.748993
 21
-37.4548
  0
LINE
  8
0
 10
-0.748993
 20
-37.4548
 11
0.724716
 21
-36.2127
  0
LINE
  8
0
 10
0.724716
 20
-36.2127
 11
1.68666
 21
-35.4071
  0
LINE
  8
0
 10
1.68666
 20
-35.4071
 11
1.75797
 21
-35.3418
  0
LINE
  8
0
 10
1.75797
 20
-35.3418
 11
1.89113
 21
-35.2296
  0
LINE
  8
0
 10
1.89113
 20
-35.2296
 11
3.28905
 21
-33.9391
  0
LINE
  8
0
 10
3.28905
 20
-33.9391
 11
4.17619
 21
-33.1263
  0
LINE
  8
0
 10
4.17619
 20
-33.1263
 11
4.24632
 21
-33.0554
  0
LINE
  8
0
 10
4.24632
 20
-33.0554
 11
4.38269
 21
-32.9295
  0
LINE
  8
0
 10
4.38269
 20
-32.9295
 11
5.67546
 21
-31.6098
  0
LINE
  8
0
 10
5.67546
 20
-31.6098
 11
6.48849
 21
-30.7874
  0
LINE
  8
0
 10
6.48849
 20
-30.7874
 11
6.55656
 21
-30.7104
  0
LINE
  8
0
 10
6.55656
 20
-30.7104
 11
6.69199
 21
-30.5721
  0
LINE
  8
0
 10
6.69199
 20
-30.5721
 11
7.85385
 21
-29.2417
  0
LINE
  8
0
 10
7.85385
 20
-29.2417
 11
8.5905
 21
-28.4077
  0
LINE
  8
0
 10
8.5905
 20
-28.4077
 11
8.65511
 21
-28.3242
  0
LINE
  8
0
 10
8.65511
 20
-28.3242
 11
8.78535
 21
-28.175
  0
LINE
  8
0
 10
8.78535
 20
-28.175
 11
9.79431
 21
-26.8512
  0
LINE
  8
0
 10
9.79431
 20
-26.8512
 11
10.4492
 21
-26.0045
  0
LINE
  8
0
 10
10.4492
 20
-26.0045
 11
10.5085
 21
-25.9141
  0
LINE
  8
0
 10
10.5085
 20
-25.9141
 11
10.6291
 21
-25.7558
  0
LINE
  8
0
 10
10.6291
 20
-25.7558
 11
11.4677
 21
-24.4532
  0
LINE
  8
0
 10
11.4677
 20
-24.4532
 11
12.0314
 21
-23.5948
  0
LINE
  8
0
 10
12.0314
 20
-23.5948
 11
12.083
 21
-23.4976
  0
LINE
  8
0
 10
12.083
 20
-23.4976
 11
12.1897
 21
-23.3319
  0
LINE
  8
0
 10
12.1897
 20
-23.3319
 11
12.8439
 21
-22.0636
  0
LINE
  8
0
 10
12.8439
 20
-22.0636
 11
13.3042
 21
-21.196
  0
LINE
  8
0
 10
13.3042
 20
-21.196
 11
13.3565
 21
-21.0698
  0
LINE
  8
0
 10
13.3565
 20
-21.0698
 11
13.4332
 21
-20.9209
  0
LINE
  8
0
 10
13.4332
 20
-20.9209
 11
13.7363
 21
-20.1893
  0
LINE
  8
0
 10
13.7363
 20
-20.1893
 11
13.7413
 21
-20.1872
  0
LINE
  8
0
 10
13.7413
 20
-20.1872
 11
14.2624
 21
-18.9291
  0
LINE
  8
0
 10
14.2624
 20
-18.9291
 11
14.6425
 21
-18.8524
  0
LINE
  8
0
 10
14.6425
 20
-18.8524
 11
17.3435
 21
-18.3078
  0
LINE
  8
0
 10
17.3435
 20
-18.3078
 11
17.3498
 21
-18.3063
  0
LINE
  8
0
 10
17.3498
 20
-18.3063
 11
17.3542
 21
-18.3054
  0
LINE
  8
0
 10
17.3542
 20
-18.3054
 11
19.2983
 21
-17.83
  0
LINE
  8
0
 10
19.2983
 20
-17.83
 11
21.9432
 21
-17.1835
  0
LINE
  8
0
 10
21.9432
 20
-17.1835
 11
21.9487
 21
-17.1819
  0
LINE
  8
0
 10
21.9487
 20
-17.1819
 11
21.953
 21
-17.1809
  0
LINE
  8
0
 10
21.953
 20
-17.1809
 11
23.9354
 21
-16.603
  0
LINE
  8
0
 10
23.9354
 20
-16.603
 11
26.3594
 21
-15.8967
  0
LINE
  8
0
 10
26.3594
 20
-15.8967
 11
26.3642
 21
-15.895
  0
LINE
  8
0
 10
26.3642
 20
-15.895
 11
26.3683
 21
-15.8938
  0
LINE
  8
0
 10
26.3683
 20
-15.8938
 11
28.3889
 21
-15.2005
  0
LINE
  8
0
 10
28.3889
 20
-15.2005
 11
30.5934
 21
-14.4444
  0
LINE
  8
0
 10
30.5934
 20
-14.4444
 11
30.5974
 21
-14.4428
  0
LINE
  8
0
 10
30.5974
 20
-14.4428
 11
30.6014
 21
-14.4414
  0
LINE
  8
0
 10
30.6014
 20
-14.4414
 11
32.587
 21
-13.6473
  0
LINE
  8
0
 10
32.587
 20
-13.6473
 11
34.647
 21
-12.8237
  0
LINE
  8
0
 10
34.647
 20
-12.8237
 11
36.4148
 21
-12.0914
  0
LINE
  8
0
 10
36.4148
 20
-12.0914
 11
36.4174
 21
-12.0902
  0
LINE
  8
0
 10
36.4174
 20
-12.0902
 11
36.422
 21
-12.0883
  0
LINE
  8
0
 10
36.422
 20
-12.0883
 11
38.3696
 21
-11.1874
  0
LINE
  8
0
 10
38.3696
 20
-11.1874
 11
40.2895
 21
-10.2994
  0
LINE
  8
0
 10
40.2895
 20
-10.2994
 11
40.2926
 21
-10.2977
  0
LINE
  8
0
 10
40.2926
 20
-10.2977
 11
40.2959
 21
-10.2962
  0
LINE
  8
0
 10
40.2959
 20
-10.2962
 11
42.2495
 21
-9.25706
  0
LINE
  8
0
 10
42.2495
 20
-9.25706
 11
43.9869
 21
-8.3331
  0
LINE
  8
0
 10
43.9869
 20
-8.3331
 11
43.9895
 21
-8.3315
  0
LINE
  8
0
 10
43.9895
 20
-8.3315
 11
43.9925
 21
-8.3299
  0
LINE
  8
0
 10
43.9925
 20
-8.3299
 11
45.8387
 21
-7.20595
  0
LINE
  8
0
 10
45.8387
 20
-7.20595
 11
47.5085
 21
-6.18959
  0
LINE
  8
0
 10
47.5085
 20
-6.18959
 11
47.511
 21
-6.18788
  0
LINE
  8
0
 10
47.511
 20
-6.18788
 11
47.5135
 21
-6.18637
  0
LINE
  8
0
 10
47.5135
 20
-6.18637
 11
49.2029
 21
-5.01347
  0
LINE
  8
0
 10
49.2029
 20
-5.01347
 11
50.8561
 21
-3.86592
  0
LINE
  8
0
 10
50.8561
 20
-3.86592
 11
50.8582
 21
-3.8642
  0
LINE
  8
0
 10
50.8582
 20
-3.8642
 11
50.8603
 21
-3.86275
  0
LINE
  8
0
 10
50.8603
 20
-3.86275
 11
52.4211
 21
-2.63031
  0
LINE
  8
0
 10
52.4211
 20
-2.63031
 11
54.031
 21
-1.35918
  0
LINE
  8
0
 10
54.031
 20
-1.35918
 11
54.033
 21
-1.35745
  0
LINE
  8
0
 10
54.033
 20
-1.35745
 11
54.0347
 21
-1.35608
  0
LINE
  8
0
 10
54.0347
 20
-1.35608
 11
55.4332
 21
-0.10231
  0
LINE
  8
0
 10
55.4332
 20
-0.10231
 11
57.035
 21
1.3336
  0
LINE
  8
0
 10
57.035
 20
1.3336
 11
57.0368
 21
1.3354
  0
LINE
  8
0
 10
57.0368
 20
1.3354
 11
57.0381
 21
1.33658
  0
LINE
  8
0
 10
57.0381
 20
1.33658
 11
58.2332
 21
2.55171
  0
LINE
  8
0
 10
58.2332
 20
2.55171
 11
59.8696
 21
4.21535
  0
LINE
  8
0
 10
59.8696
 20
4.21535
 11
59.8712
 21
4.21718
  0
LINE
  8
0
 10
59.8712
 20
4.21718
 11
59.8722
 21
4.21817
  0
LINE
  8
0
 10
59.8722
 20
4.21817
 11
60.81
 21
5.29921
  0
LINE
  8
0
 10
60.81
 20
5.29921
 11
62.5365
 21
7.28902
  0
LINE
  8
0
 10
62.5365
 20
7.28902
 11
62.5379
 21
7.29086
  0
LINE
  8
0
 10
62.5379
 20
7.29086
 11
62.5385
 21
7.29163
  0
LINE
  8
0
 10
62.5385
 20
7.29163
 11
63.267
 21
8.24394
  0
LINE
  8
0
 10
63.267
 20
8.24394
 11
65.037
 21
10.5575
  0
LINE
  8
0
 10
65.037
 20
10.5575
 11
67.373
 21
14.0238
  0
LINE
  8
0
 10
67.373
 20
14.0238
 11
69.5459
 21
17.6908
  0
LINE
  8
0
 10
69.5459
 20
17.6908
 11
71.5574
 21
21.5615
  0
LINE
  8
0
 10
71.5574
 20
21.5615
 11
73.4089
 21
25.6387
  0
LINE
  8
0
 10
73.4089
 20
25.6387
 11
74.1412
 21
27.4065
  0
LINE
  8
0
 10
74.1412
 20
27.4065
 11
75.8344
 21
31.6933
  0
LINE
  8
0
 10
75.8344
 20
31.6933
 11
77.0363
 21
35.2126
  0
LINE
  8
0
 10
77.0363
 20
35.2126
 11
77.2189
 21
35.4565
  0
LINE
  8
0
 10
77.2189
 20
35.4565
 11
77.4601
 21
35.7375
  0
LINE
  8
0
 10
77.4601
 20
35.7375
 11
77.7386
 21
36.0281
  0
LINE
  8
0
 10
77.7386
 20
36.0281
 11
78.054
 21
36.3289
  0
LINE
  8
0
 10
78.054
 20
36.3289
 11
78.4057
 21
36.6401
  0
LINE
  8
0
 10
78.4057
 20
36.6401
 11
78.7932
 21
36.9619
  0
LINE
  8
0
 10
78.7932
 20
36.9619
 11
79.216
 21
37.2946
  0
LINE
  8
0
 10
79.216
 20
37.2946
 11
79.6734
 21
37.6385
  0
LINE
  8
0
 10
79.6734
 20
37.6385
 11
80.165
 21
37.9939
  0
LINE
  8
0
 10
80.165
 20
37.9939
 11
80.6902
 21
38.361
  0
LINE
  8
0
 10
80.6902
 20
38.361
 11
81.2485
 21
38.7403
  0
LINE
  8
0
 10
81.2485
 20
38.7403
 11
81.8394
 21
39.1318
  0
LINE
  8
0
 10
81.8394
 20
39.1318
 11
82.4622
 21
39.536
  0
LINE
  8
0
 10
82.4622
 20
39.536
 11
83.1165
 21
39.9531
  0
LINE
  8
0
 10
83.1165
 20
39.9531
 11
83.8017
 21
40.3834
  0
LINE
  8
0
 10
83.8017
 20
40.3834
 11
84.5174
 21
40.8271
  0
LINE
  8
0
 10
84.5174
 20
40.8271
 11
85.2629
 21
41.2847
  0
LINE
  8
0
 10
85.2629
 20
41.2847
 11
85.9951
 21
43.0524
  0
LINE
  8
0
 10
85.9951
 20
43.0524
 11
85.2629
 21
44.8202
  0
LINE
  8
0
 10
85.2629
 20
44.8202
 11
83.4949
 21
45.5525
  0
LINE
  8
0
 10
83.4949
 20
45.5525
 11
82.9165
 21
45.3753
  0
LINE
  8
0
 10
82.9165
 20
45.3753
 11
82.3288
 21
45.187
  0
LINE
  8
0
 10
82.3288
 20
45.187
 11
81.7344
 21
44.9908
  0
LINE
  8
0
 10
81.7344
 20
44.9908
 11
81.1362
 21
44.79
  0
LINE
  8
0
 10
81.1362
 20
44.79
 11
80.5367
 21
44.5877
  0
LINE
  8
0
 10
80.5367
 20
44.5877
 11
79.9387
 21
44.3872
  0
LINE
  8
0
 10
79.9387
 20
44.3872
 11
79.3449
 21
44.1916
  0
LINE
  8
0
 10
79.3449
 20
44.1916
 11
78.758
 21
44.0042
  0
LINE
  8
0
 10
78.758
 20
44.0042
 11
78.1806
 21
43.8282
  0
LINE
  8
0
 10
78.1806
 20
43.8282
 11
77.6155
 21
43.6667
  0
LINE
  8
0
 10
77.6155
 20
43.6667
 11
77.0653
 21
43.523
  0
LINE
  8
0
 10
77.0653
 20
43.523
 11
76.5327
 21
43.4002
  0
LINE
  8
0
 10
76.5327
 20
43.4002
 11
76.0205
 21
43.3016
  0
LINE
  8
0
 10
76.0205
 20
43.3016
 11
75.5314
 21
43.2304
  0
LINE
  8
0
 10
75.5314
 20
43.2304
 11
75.068
 21
43.1898
  0
LINE
  8
0
 10
75.068
 20
43.1898
 11
74.633
 21
43.1829
  0
LINE
  8
0
 10
74.633
 20
43.1829
 11
74.2542
 21
43.2111
  0
LINE
  8
0
 10
74.2542
 20
43.2111
 11
73.613
 21
43.5435
  0
LINE
  8
0
 10
73.613
 20
43.5435
 11
73.6018
 21
43.5491
  0
LINE
  8
0
 10
73.6018
 20
43.5491
 11
73.5853
 21
43.5576
  0
LINE
  8
0
 10
73.5853
 20
43.5576
 11
73.0068
 21
43.8452
  0
LINE
  8
0
 10
73.0068
 20
43.8452
 11
72.255
 21
44.2193
  0
LINE
  8
0
 10
72.255
 20
44.2193
 11
72.2338
 21
44.2294
  0
LINE
  8
0
 10
72.2338
 20
44.2294
 11
72.2005
 21
44.246
  0
LINE
  8
0
 10
72.2005
 20
44.246
 11
71.52
 21
44.5694
  0
LINE
  8
0
 10
71.52
 20
44.5694
 11
70.9249
 21
44.8528
  0
LINE
  8
0
 10
70.9249
 20
44.8528
 11
70.896
 21
44.8659
  0
LINE
  8
0
 10
70.896
 20
44.8659
 11
70.8446
 21
44.8904
  0
LINE
  8
0
 10
70.8446
 20
44.8904
 11
70.0992
 21
45.2279
  0
LINE
  8
0
 10
70.0992
 20
45.2279
 11
69.6221
 21
45.4447
  0
LINE
  8
0
 10
69.6221
 20
45.4447
 11
69.5894
 21
45.4588
  0
LINE
  8
0
 10
69.5894
 20
45.4588
 11
69.5171
 21
45.4915
  0
LINE
  8
0
 10
69.5171
 20
45.4915
 11
68.733
 21
45.8286
  0
LINE
  8
0
 10
68.733
 20
45.8286
 11
68.3463
 21
45.9956
  0
LINE
  8
0
 10
68.3463
 20
45.9956
 11
68.2986
 21
46.0154
  0
LINE
  8
0
 10
68.2986
 20
46.0154
 11
68.2176
 21
46.0502
  0
LINE
  8
0
 10
68.2176
 20
46.0502
 11
66.4498
 21
46.7824
  0
LINE
  8
0
 10
66.4498
 20
46.7824
 11
65.6384
 21
47.1121
  0
LINE
  8
0
 10
65.6384
 20
47.1121
 11
65.3292
 21
47.2385
  0
LINE
  8
0
 10
65.3292
 20
47.2385
 11
65.2938
 21
47.2522
  0
LINE
  8
0
 10
65.2938
 20
47.2522
 11
65.1778
 21
47.2993
  0
LINE
  8
0
 10
65.1778
 20
47.2993
 11
64.3395
 21
47.6196
  0
LINE
  8
0
 10
64.3395
 20
47.6196
 11
64.1059
 21
47.7096
  0
LINE
  8
0
 10
64.1059
 20
47.7096
 11
64.0736
 21
47.7213
  0
LINE
  8
0
 10
64.0736
 20
47.7213
 11
63.9328
 21
47.7751
  0
LINE
  8
0
 10
63.9328
 20
47.7751
 11
63.0788
 21
48.0802
  0
LINE
  8
0
 10
63.0788
 20
48.0802
 11
62.9082
 21
48.1418
  0
LINE
  8
0
 10
62.9082
 20
48.1418
 11
62.8801
 21
48.1512
  0
LINE
  8
0
 10
62.8801
 20
48.1512
 11
62.7144
 21
48.2104
  0
LINE
  8
0
 10
62.7144
 20
48.2104
 11
61.8535
 21
48.4961
  0
LINE
  8
0
 10
61.8535
 20
48.4961
 11
61.7356
 21
48.5357
  0
LINE
  8
0
 10
61.7356
 20
48.5357
 11
61.713
 21
48.5428
  0
LINE
  8
0
 10
61.713
 20
48.5428
 11
61.5221
 21
48.6061
  0
LINE
  8
0
 10
61.5221
 20
48.6061
 11
60.654
 21
48.8716
  0
LINE
  8
0
 10
60.654
 20
48.8716
 11
60.5878
 21
48.8921
  0
LINE
  8
0
 10
60.5878
 20
48.8921
 11
60.5733
 21
48.8962
  0
LINE
  8
0
 10
60.5733
 20
48.8962
 11
60.3555
 21
48.9628
  0
LINE
  8
0
 10
60.3555
 20
48.9628
 11
59.4887
 21
49.2046
  0
LINE
  8
0
 10
59.4887
 20
49.2046
 11
59.4643
 21
49.2116
  0
LINE
  8
0
 10
59.4643
 20
49.2116
 11
59.4581
 21
49.2132
  0
LINE
  8
0
 10
59.4581
 20
49.2132
 11
59.214
 21
49.2812
  0
LINE
  8
0
 10
59.214
 20
49.2812
 11
58.0973
 21
49.5621
  0
LINE
  8
0
 10
58.0973
 20
49.5621
 11
57.0047
 21
49.8061
  0
LINE
  8
0
 10
57.0047
 20
49.8061
 11
55.936
 21
50.014
  0
LINE
  8
0
 10
55.936
 20
50.014
 11
54.8906
 21
50.1864
  0
LINE
  8
0
 10
54.8906
 20
50.1864
 11
53.8681
 21
50.3241
  0
LINE
  8
0
 10
53.8681
 20
50.3241
 11
52.8679
 21
50.4277
  0
LINE
  8
0
 10
52.8679
 20
50.4277
 11
51.8897
 21
50.4981
  0
LINE
  8
0
 10
51.8897
 20
50.4981
 11
51.0476
 21
50.5312
  0
LINE
  8
0
 10
51.0476
 20
50.5312
 11
50.3669
 21
50.8488
  0
LINE
  8
0
 10
50.3669
 20
50.8488
 11
48.5992
 21
51.581
  0
LINE
  8
0
 10
48.5992
 20
51.581
 11
46.6226
 21
52.2044
  0
LINE
  8
0
 10
46.6226
 20
52.2044
 11
44.5422
 21
52.5847
  0
LINE
  8
0
 10
44.5422
 20
52.5847
 11
42.4093
 21
52.7125
  0
LINE
  8
0
 10
42.4093
 20
52.7125
 11
40.2765
 21
52.5847
  0
LINE
  8
0
 10
40.2765
 20
52.5847
 11
38.1961
 21
52.2044
  0
LINE
  8
0
 10
38.1961
 20
52.2044
 11
36.2195
 21
51.581
  0
LINE
  8
0
 10
36.2195
 20
51.581
 11
34.4517
 21
50.8488
  0
LINE
  8
0
 10
34.4517
 20
50.8488
 11
32.6275
 21
49.9977
  0
LINE
  8
0
 10
32.6275
 20
49.9977
 11
32.4487
 21
49.8814
  0
LINE
  8
0
 10
32.4487
 20
49.8814
 11
32.301
 21
49.8519
  0
LINE
  8
0
 10
32.301
 20
49.8519
 11
31.7047
 21
49.7397
  0
LINE
  8
0
 10
31.7047
 20
49.7397
 11
31.4094
 21
49.6741
  0
LINE
  8
0
 10
31.4094
 20
49.6741
 11
30.9021
 21
49.5729
  0
LINE
  8
0
 10
30.9021
 20
49.5729
 11
30.1049
 21
49.3843
  0
LINE
  8
0
 10
30.1049
 20
49.3843
 11
29.5674
 21
49.2648
  0
LINE
  8
0
 10
29.5674
 20
49.2648
 11
29.166
 21
49.1621
  0
LINE
  8
0
 10
29.166
 20
49.1621
 11
28.5451
 21
49.0152
  0
LINE
  8
0
 10
28.5451
 20
49.0152
 11
27.8631
 21
48.8285
  0
LINE
  8
0
 10
27.8631
 20
48.8285
 11
27.3962
 21
48.709
  0
LINE
  8
0
 10
27.3962
 20
48.709
 11
26.8828
 21
48.5603
  0
LINE
  8
0
 10
26.8828
 20
48.5603
 11
26.1471
 21
48.3589
  0
LINE
  8
0
 10
26.1471
 20
48.3589
 11
25.5783
 21
48.1824
  0
LINE
  8
0
 10
25.5783
 20
48.1824
 11
25.1903
 21
48.07
  0
LINE
  8
0
 10
25.1903
 20
48.07
 11
24.5585
 21
47.8658
  0
LINE
  8
0
 10
24.5585
 20
47.8658
 11
23.7067
 21
47.6013
  0
LINE
  8
0
 10
23.7067
 20
47.6013
 11
23.2503
 21
47.443
  0
LINE
  8
0
 10
23.2503
 20
47.443
 11
22.9488
 21
47.3456
  0
LINE
  8
0
 10
22.9488
 20
47.3456
 11
22.1921
 21
47.0758
  0
LINE
  8
0
 10
22.1921
 20
47.0758
 11
21.2229
 21
46.7395
  0
LINE
  8
0
 10
21.2229
 20
46.7395
 11
20.8796
 21
46.608
  0
LINE
  8
0
 10
20.8796
 20
46.608
 11
20.6708
 21
46.5336
  0
LINE
  8
0
 10
20.6708
 20
46.5336
 11
19.777
 21
46.1855
  0
LINE
  8
0
 10
19.777
 20
46.1855
 11
18.6943
 21
45.7706
  0
LINE
  8
0
 10
18.6943
 20
45.7706
 11
18.4214
 21
45.6576
  0
LINE
  8
0
 10
18.4214
 20
45.6576
 11
18.3553
 21
45.6318
  0
LINE
  8
0
 10
18.3553
 20
45.6318
 11
16.5875
 21
44.8996
  0
LINE
  8
0
 10
16.5875
 20
44.8996
 11
15.5176
 21
44.448
  0
LINE
  8
0
 10
15.5176
 20
44.448
 11
14.352
 21
43.9595
  0
LINE
  8
0
 10
14.352
 20
43.9595
 11
14.2418
 21
43.9094
  0
LINE
  8
0
 10
14.2418
 20
43.9094
 11
14.2336
 21
43.9059
  0
LINE
  8
0
 10
14.2336
 20
43.9059
 11
11.8403
 21
42.818
  0
LINE
  8
0
 10
11.8403
 20
42.818
 11
11.8294
 21
42.8127
  0
LINE
  8
0
 10
11.8294
 20
42.8127
 11
11.7305
 21
42.7677
  0
LINE
  8
0
 10
11.7305
 20
42.7677
 11
10.7018
 21
42.2639
  0
LINE
  8
0
 10
10.7018
 20
42.2639
 11
9.40692
 21
41.6338
  0
LINE
  8
0
 10
9.40692
 20
41.6338
 11
9.26759
 21
41.5616
  0
LINE
  8
0
 10
9.26759
 20
41.5616
 11
9.06056
 21
41.4602
  0
LINE
  8
0
 10
9.06056
 20
41.4602
 11
8.07994
 21
40.9459
  0
LINE
  8
0
 10
8.07994
 20
40.9459
 11
6.93234
 21
40.351
  0
LINE
  8
0
 10
6.93234
 20
40.351
 11
6.65826
 21
40.2003
  0
LINE
  8
0
 10
6.65826
 20
40.2003
 11
6.34114
 21
40.034
  0
LINE
  8
0
 10
6.34114
 20
40.034
 11
5.44237
 21
39.5319
  0
LINE
  8
0
 10
5.44237
 20
39.5319
 11
4.41573
 21
38.9675
  0
LINE
  8
0
 10
4.41573
 20
38.9675
 11
3.99966
 21
38.7259
  0
LINE
  8
0
 10
3.99966
 20
38.7259
 11
3.57101
 21
38.4864
  0
LINE
  8
0
 10
3.57101
 20
38.4864
 11
2.76627
 21
38.0096
  0
LINE
  8
0
 10
2.76627
 20
38.0096
 11
1.85614
 21
37.481
  0
LINE
  8
0
 10
1.85614
 20
37.481
 11
1.28911
 21
37.1344
  0
LINE
  8
0
 10
1.28911
 20
37.1344
 11
0.748978
 21
36.8143
  0
LINE
  8
0
 10
0.748978
 20
36.8143
 11
0.0452881
 21
36.374
  0
LINE
  8
0
 10
0.0452881
 20
36.374
 11
-0.747314
 21
35.8894
  0
LINE
  8
0
 10
-0.747314
 20
35.8894
 11
-1.47702
 21
35.4213
  0
LINE
  8
0
 10
-1.47702
 20
35.4213
 11
-2.12617
 21
35.015
  0
LINE
  8
0
 10
-2.12617
 20
35.015
 11
-2.7229
 21
34.622
  0
LINE
  8
0
 10
-2.7229
 20
34.622
 11
-3.39557
 21
34.1905
  0
LINE
  8
0
 10
-3.39557
 20
34.1905
 11
-4.30322
 21
33.5812
  0
LINE
  8
0
 10
-4.30322
 20
33.5812
 11
-5.05565
 21
33.0856
  0
LINE
  8
0
 10
-5.05565
 20
33.0856
 11
-5.54109
 21
32.7502
  0
LINE
  8
0
 10
-5.54109
 20
32.7502
 11
-6.08954
 21
32.382
  0
LINE
  8
0
 10
-6.08954
 20
32.382
 11
-7.20016
 21
31.6039
  0
LINE
  8
0
 10
-7.20016
 20
31.6039
 11
-8.04065
 21
31.0232
  0
LINE
  8
0
 10
-8.04065
 20
31.0232
 11
-8.40962
 21
30.7565
  0
LINE
  8
0
 10
-8.40962
 20
30.7565
 11
-8.83015
 21
30.4619
  0
LINE
  8
0
 10
-8.83015
 20
30.4619
 11
-10.1934
 21
29.4673
  0
LINE
  8
0
 10
-10.1934
 20
29.4673
 11
-11.0824
 21
28.8248
  0
LINE
  8
0
 10
-11.0824
 20
28.8248
 11
-11.3302
 21
28.638
  0
LINE
  8
0
 10
-11.3302
 20
28.638
 11
-11.6183
 21
28.4278
  0
LINE
  8
0
 10
-11.6183
 20
28.4278
 11
-13.3706
 21
27.0995
  0
LINE
  8
0
 10
-13.3706
 20
27.0995
 11
-14.182
 21
26.4877
  0
LINE
  8
0
 10
-14.182
 20
26.4877
 11
-14.3042
 21
26.3918
  0
LINE
  8
0
 10
-14.3042
 20
26.3918
 11
-14.4549
 21
26.2776
  0
LINE
  8
0
 10
-14.4549
 20
26.2776
 11
-16.3036
 21
24.8244
  0
LINE
  8
0
 10
-16.3036
 20
24.8244
 11
-17.3757
 21
24.9465
  0
LINE
  8
0
 10
-17.3757
 20
24.9465
 11
-19.1798
 21
25.1414
  0
LINE
  8
0
 10
-19.1798
 20
25.1414
 11
-20.9869
 21
25.3171
  0
LINE
  8
0
 10
-20.9869
 20
25.3171
 11
-22.7984
 21
25.465
  0
LINE
  8
0
 10
-22.7984
 20
25.465
 11
-24.6155
 21
25.5763
  0
LINE
  8
0
 10
-24.6155
 20
25.5763
 11
-26.4398
 21
25.6423
  0
LINE
  8
0
 10
-26.4398
 20
25.6423
 11
-28.2725
 21
25.6541
  0
LINE
  8
0
 10
-28.2725
 20
25.6541
 11
-30.1151
 21
25.603
  0
LINE
  8
0
 10
-30.1151
 20
25.603
 11
-31.9688
 21
25.4804
  0
LINE
  8
0
 10
-31.9688
 20
25.4804
 11
-33.8351
 21
25.2773
  0
LINE
  8
0
 10
-33.8351
 20
25.2773
 11
-35.7153
 21
24.9852
  0
LINE
  8
0
 10
-35.7153
 20
24.9852
 11
-37.6108
 21
24.5952
  0
LINE
  8
0
 10
-37.6108
 20
24.5952
 11
-39.523
 21
24.0985
  0
LINE
  8
0
 10
-39.523
 20
24.0985
 11
-41.4532
 21
23.4865
  0
LINE
  8
0
 10
-41.4532
 20
23.4865
 11
-43.4028
 21
22.7504
  0
LINE
  8
0
 10
-43.4028
 20
22.7504
 11
-45.1705
 21
22.0181
  0
LINE
  8
0
 10
-45.1705
 20
22.0181
 11
-47.1409
 21
21.1491
  0
LINE
  8
0
 10
-47.1409
 20
21.1491
 11
-49.1334
 21
20.1384
  0
LINE
  8
0
 10
-49.1334
 20
20.1384
 11
-51.1494
 21
18.9774
  0
LINE
  8
0
 10
-51.1494
 20
18.9774
 11
-53.1902
 21
17.6572
  0
LINE
  8
0
 10
-53.1902
 20
17.6572
 11
-55.2573
 21
16.1691
  0
LINE
  8
0
 10
-55.2573
 20
16.1691
 11
-55.2574
 21
16.169
  0
LINE
  8
0
 10
-55.2574
 20
16.169
 11
-55.9897
 21
14.4012
  0
LINE
  8
0
 10
-55.9897
 20
14.4012
 11
-55.9889
 21
14.1949
  0
LINE
  8
0
 10
-55.9889
 20
14.1949
 11
-55.991
 21
13.9872
  0
LINE
  8
0
 10
-55.991
 20
13.9872
 11
-55.9949
 21
13.7785
  0
LINE
  8
0
 10
-55.9949
 20
13.7785
 11
-55.9993
 21
13.5697
  0
LINE
  8
0
 10
-55.9993
 20
13.5697
 11
-56.0029
 21
13.3612
  0
LINE
  8
0
 10
-56.0029
 20
13.3612
 11
-56.0045
 21
13.1537
  0
LINE
  8
0
 10
-56.0045
 20
13.1537
 11
-56.003
 21
12.9478
  0
LINE
  8
0
 10
-56.003
 20
12.9478
 11
-55.997
 21
12.7441
  0
LINE
  8
0
 10
-55.997
 20
12.7441
 11
-55.9854
 21
12.5432
  0
LINE
  8
0
 10
-55.9854
 20
12.5432
 11
-55.967
 21
12.3457
  0
LINE
  8
0
 10
-55.967
 20
12.3457
 11
-55.9404
 21
12.1523
  0
LINE
  8
0
 10
-55.9404
 20
12.1523
 11
-55.9045
 21
11.9636
  0
LINE
  8
0
 10
-55.9045
 20
11.9636
 11
-55.8581
 21
11.7801
  0
LINE
  8
0
 10
-55.8581
 20
11.7801
 11
-55.8503
 21
11.7564
  0
LINE
  8
0
 10
-55.8503
 20
11.7564
 11
-56.4027
 21
11.4781
  0
LINE
  8
0
 10
-56.4027
 20
11.4781
 11
-57.0646
 21
11.1351
  0
LINE
  8
0
 10
-57.0646
 20
11.1351
 11
-57.7234
 21
10.7825
  0
LINE
  8
0
 10
-57.7234
 20
10.7825
 11
-58.3786
 21
10.4194
  0
LINE
  8
0
 10
-58.3786
 20
10.4194
 11
-59.0298
 21
10.0442
  0
LINE
  8
0
 10
-59.0298
 20
10.0442
 11
-59.6767
 21
9.65591
  0
LINE
  8
0
 10
-59.6767
 20
9.65591
 11
-60.3187
 21
9.2532
  0
LINE
  8
0
 10
-60.3187
 20
9.2532
 11
-60.9555
 21
8.83484
  0
LINE
  8
0
 10
-60.9555
 20
8.83484
 11
-61.5867
 21
8.39958
  0
LINE
  8
0
 10
-61.5867
 20
8.39958
 11
-62.2118
 21
7.94621
  0
LINE
  8
0
 10
-62.2118
 20
7.94621
 11
-62.8305
 21
7.47348
  0
LINE
  8
0
 10
-62.8305
 20
7.47348
 11
-63.4424
 21
6.98015
  0
LINE
  8
0
 10
-63.4424
 20
6.98015
 11
-64.0469
 21
6.46498
  0
LINE
  8
0
 10
-64.0469
 20
6.46498
 11
-64.6438
 21
5.92673
  0
LINE
  8
0
 10
-64.6438
 20
5.92673
 11
-65.2325
 21
5.36418
  0
LINE
  8
0
 10
-65.2325
 20
5.36418
 11
-65.8127
 21
4.77606
  0
LINE
  8
0
 10
-65.8127
 20
4.77606
 11
-66.384
 21
4.16118
  0
LINE
  8
0
 10
-66.384
 20
4.16118
 11
-66.946
 21
3.51825
  0
LINE
  8
0
 10
-66.946
 20
3.51825
 11
-67.2943
 21
3.13098
  0
LINE
  8
0
 10
-67.2943
 20
3.13098
 11
-68.0265
 21
1.36322
  0
LINE
  8
0
 10
-68.0265
 20
1.36322
 11
-68.1947
 21
0.901047
  0
LINE
  8
0
 10
-68.1947
 20
0.901047
 11
-68.1989
 21
0.375046
  0
LINE
  8
0
 10
-68.1989
 20
0.375046
 11
-68.0553
 21
-0.203674
  0
LINE
  8
0
 10
-68.0553
 20
-0.203674
 11
-67.3231
 21
-1.97144
  0
LINE
  8
0
 10
-67.3231
 20
-1.97144
 11
-67.0479
 21
-2.59183
  0
LINE
  8
0
 10
-67.0479
 20
-2.59183
 11
-66.6571
 21
-3.24275
  0
LINE
  8
0
 10
-66.6571
 20
-3.24275
 11
-66.1671
 21
-3.91315
  0
LINE
  8
0
 10
-66.1671
 20
-3.91315
 11
-65.5938
 21
-4.59192
  0
LINE
  8
0
 10
-65.5938
 20
-4.59192
 11
-64.9536
 21
-5.26799
  0
LINE
  8
0
 10
-64.9536
 20
-5.26799
 11
-64.2625
 21
-5.93024
  0
LINE
  8
0
 10
-64.2625
 20
-5.93024
 11
-63.5367
 21
-6.5676
  0
LINE
  8
0
 10
-63.5367
 20
-6.5676
 11
-62.7923
 21
-7.16898
  0
LINE
  8
0
 10
-62.7923
 20
-7.16898
 11
-62.0455
 21
-7.72328
  0
LINE
  8
0
 10
-62.0455
 20
-7.72328
 11
-61.3125
 21
-8.21944
  0
LINE
  8
0
 10
-61.3125
 20
-8.21944
 11
-60.6095
 21
-8.64632
  0
LINE
  8
0
 10
-60.6095
 20
-8.64632
 11
-59.9525
 21
-8.99287
  0
LINE
  8
0
 10
-59.9525
 20
-8.99287
 11
-59.3577
 21
-9.248
  0
LINE
  8
0
 10
-59.3577
 20
-9.248
 11
-57.5899
 21
-9.98024
  0
LINE
  8
0
 10
-57.5899
 20
-9.98024
 11
-57.0735
 21
-10.1328
  0
LINE
  8
0
 10
-57.0735
 20
-10.1328
 11
-56.6517
 21
-10.1718
  0
LINE
  8
0
 10
-56.6517
 20
-10.1718
 11
-56.3405
 21
-10.0861
  0
LINE
  8
0
 10
-56.3405
 20
-10.0861
 11
-54.5728
 21
-9.35388
  0
LINE
  8
0
 10
-54.5728
 20
-9.35388
 11
-53.3184
 21
-8.60234
  0
LINE
  8
0
 10
-53.3184
 20
-8.60234
 11
-52.0442
 21
-7.91977
  0
LINE
  8
0
 10
-52.0442
 20
-7.91977
 11
-50.8717
 21
-7.36153
  0
LINE
  8
0
 10
-50.8717
 20
-7.36153
 11
-49.8745
 21
-6.99463
  0
LINE
  8
0
 10
-49.8745
 20
-6.99463
 11
-48.5251
 21
-6.56448
  0
LINE
  8
0
 10
-48.5251
 20
-6.56448
 11
-47.1581
 21
-6.1916
  0
LINE
  8
0
 10
-47.1581
 20
-6.1916
 11
-45.7738
 21
-5.87363
  0
LINE
  8
0
 10
-45.7738
 20
-5.87363
 11
-44.3728
 21
-5.60822
  0
LINE
  8
0
 10
-44.3728
 20
-5.60822
 11
-42.9553
 21
-5.39305
  0
LINE
  8
0
 10
-42.9553
 20
-5.39305
 11
-41.8307
 21
-5.26181
  0
LINE
  8
0
 10
-41.8307
 20
-5.26181
 11
-42.0075
 21
-5.42674
  0
LINE
  8
0
 10
-42.0075
 20
-5.42674
 11
-42.1331
 21
-5.53506
  0
LINE
  8
0
 10
-42.1331
 20
-5.53506
 11
-42.2664
 21
-5.6684
  0
LINE
  8
0
 10
-42.2664
 20
-5.6684
 11
-42.4791
 21
-5.86682
  0
LINE
  8
0
 10
-42.4791
 20
-5.86682
 11
-42.8224
 21
-6.22408
  0
LINE
  8
0
 10
-42.8224
 20
-6.22408
 11
-42.9774
 21
-6.379
  0
LINE
  8
0
 10
-42.9774
 20
-6.379
 11
-43.0426
 21
-6.45326
  0
LINE
  8
0
 10
-43.0426
 20
-6.45326
 11
-43.133
 21
-6.5473
  0
LINE
  8
0
 10
-43.133
 20
-6.5473
 11
-43.7714
 21
-7.28128
  0
LINE
  8
0
 10
-43.7714
 20
-7.28128
 11
-43.7858
 21
-7.29941
  0
LINE
  8
0
 10
-43.7858
 20
-7.29941
 11
-43.7966
 21
-7.31168
  0
LINE
  8
0
 10
-43.7966
 20
-7.31168
 11
-43.8625
 21
-7.39597
  0
LINE
  8
0
 10
-43.8625
 20
-7.39597
 11
-44.3942
 21
-8.06596
  0
LINE
  8
0
 10
-44.3942
 20
-8.06596
 11
-44.5087
 21
-8.22316
  0
LINE
  8
0
 10
-44.5087
 20
-8.22316
 11
-44.59
 21
-8.32722
  0
LINE
  8
0
 10
-44.59
 20
-8.32722
 11
-44.7336
 21
-8.53169
  0
LINE
  8
0
 10
-44.7336
 20
-8.53169
 11
-45.0009
 21
-8.89851
  0
LINE
  8
0
 10
-45.0009
 20
-8.89851
 11
-45.2256
 21
-9.2326
  0
LINE
  8
0
 10
-45.2256
 20
-9.2326
 11
-45.357
 21
-9.41978
  0
LINE
  8
0
 10
-45.357
 20
-9.41978
 11
-45.4519
 21
-9.56902
  0
LINE
  8
0
 10
-45.4519
 20
-9.56902
 11
-45.5912
 21
-9.77617
  0
LINE
  8
0
 10
-45.5912
 20
-9.77617
 11
-45.9804
 21
-10.4002
  0
LINE
  8
0
 10
-45.9804
 20
-10.4002
 11
-46.0969
 21
-10.5835
  0
LINE
  8
0
 10
-46.0969
 20
-10.5835
 11
-46.1263
 21
-10.6342
  0
LINE
  8
0
 10
-46.1263
 20
-10.6342
 11
-46.1649
 21
-10.6961
  0
LINE
  8
0
 10
-46.1649
 20
-10.6961
 11
-46.7216
 21
-11.6555
  0
LINE
  8
0
 10
-46.7216
 20
-11.6555
 11
-46.7711
 21
-11.7471
  0
LINE
  8
0
 10
-46.7711
 20
-11.7471
 11
-46.809
 21
-11.8124
  0
LINE
  8
0
 10
-46.809
 20
-11.8124
 11
-46.9309
 21
-12.0421
  0
LINE
  8
0
 10
-46.9309
 20
-12.0421
 11
-47.2609
 21
-12.6517
  0
LINE
  8
0
 10
-47.2609
 20
-12.6517
 11
-47.3992
 21
-12.9248
  0
LINE
  8
0
 10
-47.3992
 20
-12.9248
 11
-47.4926
 21
-13.1007
  0
LINE
  8
0
 10
-47.4926
 20
-13.1007
 11
-47.6029
 21
-13.327
  0
LINE
  8
0
 10
-47.6029
 20
-13.327
 11
-47.7826
 21
-13.6817
  0
LINE
  8
0
 10
-47.7826
 20
-13.6817
 11
-48.0251
 21
-14.1925
  0
LINE
  8
0
 10
-48.0251
 20
-14.1925
 11
-48.147
 21
-14.4426
  0
LINE
  8
0
 10
-48.147
 20
-14.4426
 11
-48.2052
 21
-14.572
  0
LINE
  8
0
 10
-48.2052
 20
-14.572
 11
-48.2863
 21
-14.7428
  0
LINE
  8
0
 10
-48.2863
 20
-14.7428
 11
-48.7717
 21
-15.832
  0
LINE
  8
0
 10
-48.7717
 20
-15.832
 11
-50.6275
 21
-16.9946
  0
LINE
  8
0
 10
-50.6275
 20
-16.9946
 11
-52.4915
 21
-18.149
  0
LINE
  8
0
 10
-52.4915
 20
-18.149
 11
-54.3618
 21
-19.297
  0
LINE
  8
0
 10
-54.3618
 20
-19.297
 11
-56.2365
 21
-20.4406
  0
LINE
  8
0
 10
-56.2365
 20
-20.4406
 11
-58.1137
 21
-21.5818
  0
LINE
  8
0
 10
-58.1137
 20
-21.5818
 11
-59.9915
 21
-22.7225
  0
LINE
  8
0
 10
-59.9915
 20
-22.7225
 11
-61.8678
 21
-23.8645
  0
LINE
  8
0
 10
-61.8678
 20
-23.8645
 11
-63.7409
 21
-25.0098
  0
LINE
  8
0
 10
-63.7409
 20
-25.0098
 11
-65.6087
 21
-26.1602
  0
LINE
  8
0
 10
-65.6087
 20
-26.1602
 11
-67.4695
 21
-27.3179
  0
LINE
  8
0
 10
-67.4695
 20
-27.3179
 11
-69.3212
 21
-28.4845
  0
LINE
  8
0
 10
-69.3212
 20
-28.4845
 11
-71.1619
 21
-29.6622
  0
LINE
  8
0
 10
-71.1619
 20
-29.6622
 11
-72.9898
 21
-30.8527
  0
LINE
  8
0
 10
-72.9898
 20
-30.8527
 11
-74.8028
 21
-32.058
  0
LINE
  8
0
 10
-74.8028
 20
-32.058
 11
-76.5992
 21
-33.28
  0
LINE
  8
0
 10
-76.5992
 20
-33.28
 11
-78.3768
 21
-34.5207
  0
LINE
  8
0
 10
-78.3768
 20
-34.5207
 11
-80.134
 21
-35.7819
  0
LINE
  8
0
 10
-80.134
 20
-35.7819
 11
-81.8686
 21
-37.0656
  0
LINE
  8
0
 10
-81.8686
 20
-37.0656
 11
-83.5789
 21
-38.3737
  0
LINE
  8
0
 10
-83.5789
 20
-38.3737
 11
-85.2629
 21
-39.7081
  0
LINE
  8
0
 10
-85.2629
 20
-39.7081
 11
-85.9951
 21
-41.4759
  0
LINE
  8
0
 10
-85.9951
 20
-41.4759
 11
-85.2629
 21
-43.2437
  0
LINE
  8
0
 10
-85.2629
 20
-43.2437
 11
-83.4951
 21
-43.9759
  0
LINE
  8
0
 10
-83.4951
 20
-43.9759
 11
-83.495
 21
-43.9759
  0
LINE
  8
0
 10
-83.495
 20
-43.9759
 11
-81.7272
 21
-43.2436
  0
LINE
  8
0
 10
-81.7272
 20
-43.2436
 11
-79.5784
 21
-42.2141
  0
LINE
  8
0
 10
-79.5784
 20
-42.2141
 11
-77.4354
 21
-41.1832
  0
LINE
  8
0
 10
-77.4354
 20
-41.1832
 11
-75.2974
 21
-40.1541
  0
LINE
  8
0
 10
-75.2974
 20
-40.1541
 11
-73.164
 21
-39.1297
  0
LINE
  8
0
 10
-73.164
 20
-39.1297
 11
-71.0343
 21
-38.1131
  0
LINE
  8
0
 10
-71.0343
 20
-38.1131
 11
-68.9078
 21
-37.1073
  0
LINE
  8
0
 10
-68.9078
 20
-37.1073
 11
-66.7838
 21
-36.1153
  0
LINE
  8
0
 10
-66.7838
 20
-36.1153
 11
-64.6616
 21
-35.1402
  0
LINE
  8
0
 10
-64.6616
 20
-35.1402
 11
-62.5407
 21
-34.185
  0
LINE
  8
0
 10
-62.5407
 20
-34.185
 11
-60.4204
 21
-33.2526
  0
LINE
  8
0
 10
-60.4204
 20
-33.2526
 11
-58.3665
 21
-32.3746
  0
LINE
  8
0
 10
-58.3665
 20
-32.3746
 11
-57.9466
 21
-32.2009
  0
LINE
  8
0
 10
-57.9466
 20
-32.2009
 11
-55.8242
 21
-31.3554
  0
LINE
  8
0
 10
-55.8242
 20
-31.3554
 11
-53.6997
 21
-30.5449
  0
LINE
  8
0
 10
-53.6997
 20
-30.5449
 11
-51.5726
 21
-29.7723
  0
LINE
  8
0
 10
-51.5726
 20
-29.7723
 11
-49.4421
 21
-29.0408
  0
LINE
  8
0
 10
-49.4421
 20
-29.0408
 11
-47.3077
 21
-28.3534
  0
LINE
  8
0
 10
-47.3077
 20
-28.3534
 11
-45.1688
 21
-27.713
  0
LINE
  8
0
 10
-45.1688
 20
-27.713
 11
-43.0246
 21
-27.1227
  0
LINE
  8
0
 10
-43.0246
 20
-27.1227
 11
-41.6822
 21
-26.7874
  0
LINE
  8
0
 10
-41.6822
 20
-26.7874
 11
-41.3181
 21
-27.1417
  0
LINE
  8
0
 10
-41.3181
 20
-27.1417
 11
-40.0675
 21
-28.1562
  0
LINE
  8
0
 10
-40.0675
 20
-28.1562
 11
-38.8869
 21
-28.9143
  0
LINE
  8
0
 10
-38.8869
 20
-28.9143
 11
-37.7725
 21
-29.4333
  0
LINE
  8
0
 10
-37.7725
 20
-29.4333
 11
-36.0047
 21
-30.1655
  0
LINE
  8
0
 10
-36.0047
 20
-30.1655
 11
-34.9528
 21
-30.4629
  0
LINE
  8
0
 10
-34.9528
 20
-30.4629
 11
-33.9595
 21
-30.5561
  0
LINE
  8
0
 10
-33.9595
 20
-30.5561
 11
-33.0213
 21
-30.4625
  0
LINE
  8
0
 10
-33.0213
 20
-30.4625
 11
-32.1343
 21
-30.1995
  0
LINE
  8
0
 10
-32.1343
 20
-30.1995
 11
-30.3665
 21
-29.4673
  0
LINE
  8
0
 10
-30.3665
 20
-29.4673
 11
-29.527
 21
-29.0523
  0
LINE
  8
0
 10
-29.527
 20
-29.0523
 11
-28.7312
 21
-28.5028
  0
LINE
  8
0
 10
-28.7312
 20
-28.5028
 11
-27.9755
 21
-27.8362
  0
LINE
  8
0
 10
-27.9755
 20
-27.8362
 11
-27.256
 21
-27.0698
  0
LINE
  8
0
 10
-27.256
 20
-27.0698
 11
-26.5691
 21
-26.2212
  0
LINE
  8
0
 10
-26.5691
 20
-26.2212
 11
-25.911
 21
-25.3076
  0
LINE
  8
0
 10
-25.911
 20
-25.3076
 11
-25.2779
 21
-24.3466
  0
LINE
  8
0
 10
-25.2779
 20
-24.3466
 11
-24.6662
 21
-23.3555
  0
LINE
  8
0
 10
-24.6662
 20
-23.3555
 11
-24.0721
 21
-22.3518
  0
LINE
  8
0
 10
-24.0721
 20
-22.3518
 11
-23.4918
 21
-21.3528
  0
LINE
  8
0
 10
-23.4918
 20
-21.3528
 11
-22.9217
 21
-20.376
  0
LINE
  8
0
 10
-22.9217
 20
-20.376
 11
-22.3579
 21
-19.4388
  0
LINE
  8
0
 10
-22.3579
 20
-19.4388
 11
-22.1404
 21
-18.9139
  0
LINE
  8
0
 10
-22.1404
 20
-18.9139
 11
-22.2833
 21
-19.9391
  0
LINE
  8
0
 10
-22.2833
 20
-19.9391
 11
-22.5839
 21
-21.4319
  0
LINE
  8
0
 10
-22.5839
 20
-21.4319
 11
-22.9693
 21
-22.8754
  0
LINE
  8
0
 10
-22.9693
 20
-22.8754
 11
-23.384
 21
-24.1081
  0
LINE
  8
0
 10
-23.384
 20
-24.1081
 11
-23.8959
 21
-25.1586
  0
LINE
  8
0
 10
-23.8959
 20
-25.1586
 11
-24.6143
 21
-26.4212
  0
LINE
  8
0
 10
-24.6143
 20
-26.4212
 11
-25.4145
 21
-27.6428
  0
LINE
  8
0
 10
-25.4145
 20
-27.6428
 11
-26.2958
 21
-28.8251
  0
LINE
  8
0
 10
-26.2958
 20
-28.8251
 11
-27.2577
 21
-29.9698
  0
LINE
  8
0
 10
-27.2577
 20
-29.9698
 11
-28.2994
 21
-31.0784
  0
LINE
  8
0
 10
-28.2994
 20
-31.0784
 11
-29.4203
 21
-32.1528
  0
LINE
  8
0
 10
-29.4203
 20
-32.1528
 11
-30.62
 21
-33.1944
  0
LINE
  8
0
 10
-30.62
 20
-33.1944
 11
-31.8977
 21
-34.2052
  0
LINE
  8
0
 10
-31.8977
 20
-34.2052
 11
-33.2528
 21
-35.1866
  0
LINE
  8
0
 10
-33.2528
 20
-35.1866
 11
-34.6847
 21
-36.1403
  0
LINE
  8
0
 10
-34.6847
 20
-36.1403
 11
-36.1929
 21
-37.0682
  0
LINE
  8
0
 10
-36.1929
 20
-37.0682
 11
-37.7766
 21
-37.9717
  0
LINE
  8
0
 10
-37.7766
 20
-37.9717
 11
-39.4353
 21
-38.8526
  0
LINE
  8
0
 10
-39.4353
 20
-38.8526
 11
-39.5045
 21
-38.9686
  0
LINE
  8
0
 10
-39.5045
 20
-38.9686
 11
-40.2368
 21
-40.7363
  0
LINE
  8
0
 10
-40.2368
 20
-40.7363
 11
-40.2455
 21
-40.969
  0
LINE
  8
0
 10
-40.2455
 20
-40.969
 11
-40.1991
 21
-41.3054
  0
LINE
  8
0
 10
-40.1991
 20
-41.3054
 11
-40.1026
 21
-41.7322
  0
LINE
  8
0
 10
-40.1026
 20
-41.7322
 11
-39.9613
 21
-42.2365
  0
LINE
  8
0
 10
-39.9613
 20
-42.2365
 11
-39.7806
 21
-42.805
  0
LINE
  8
0
 10
-39.7806
 20
-42.805
 11
-39.5655
 21
-43.4247
  0
LINE
  8
0
 10
-39.5655
 20
-43.4247
 11
-39.3214
 21
-44.0825
  0
LINE
  8
0
 10
-39.3214
 20
-44.0825
 11
-39.0534
 21
-44.7653
  0
LINE
  8
0
 10
-39.0534
 20
-44.7653
 11
-38.7669
 21
-45.4598
  0
LINE
  8
0
 10
-38.7669
 20
-45.4598
 11
-38.0347
 21
-47.2276
  0
LINE
  8
0
 10
-38.0347
 20
-47.2276
 11
-37.7349
 21
-47.9209
  0
LINE
  8
0
 10
-37.7349
 20
-47.9209
 11
-37.4269
 21
-48.5998
  0
LINE
  8
0
 10
-37.4269
 20
-48.5998
 11
-37.1162
 21
-49.2512
  0
LINE
  8
0
 10
-37.1162
 20
-49.2512
 11
-36.8078
 21
-49.8619
  0
LINE
  8
0
 10
-36.8078
 20
-49.8619
 11
-36.507
 21
-50.419
  0
LINE
  8
0
 10
-36.507
 20
-50.419
 11
-36.2191
 21
-50.9091
  0
LINE
  8
0
 10
-36.2191
 20
-50.9091
 11
-35.9494
 21
-51.3194
  0
LINE
  8
0
 10
-35.9494
 20
-51.3194
 11
-35.703
 21
-51.6365
  0
LINE
  8
0
 10
-35.703
 20
-51.6365
 11
-35.4851
 21
-51.8474
  0
LINE
  8
0
 10
-35.4851
 20
-51.8474
 11
-35.3011
 21
-51.9391
  0
LINE
  8
0
 10
-35.3011
 20
-51.9391
 11
-33.5334
 21
-52.6713
  0
LINE
  8
0
 10
-33.5334
 20
-52.6713
 11
-31.7479
 21
-52.7125
  0
LINE
  8
0
 10
-31.7479
 20
-52.7125
 11
-31.7398
 21
-52.7115
  0
ENDSEC
  0
SECTION
  2
OBJECTS
  0
DICTIONARY
  0
ENDSEC
  0
EOF
