<?xml version="1.0" encoding="UTF-8" standalone="no"?>
<!-- Created with Inkscape (http://www.inkscape.org/) -->

<svg
   xmlns:dc="http://purl.org/dc/elements/1.1/"
   xmlns:cc="http://creativecommons.org/ns#"
   xmlns:rdf="http://www.w3.org/1999/02/22-rdf-syntax-ns#"
   xmlns:svg="http://www.w3.org/2000/svg"
   xmlns="http://www.w3.org/2000/svg"
   xmlns:sodipodi="http://sodipodi.sourceforge.net/DTD/sodipodi-0.dtd"
   xmlns:inkscape="http://www.inkscape.org/namespaces/inkscape"
   width="210mm"
   height="297mm"
   viewBox="0 0 744.09448819 1052.3622047"
   id="svg2"
   version="1.1"
   inkscape:version="0.92.4 5da689c313, 2019-01-14"
   sodipodi:docname="Fairydust.svg"
   inkscape:export-filename="C:\Users\Toshiba\Downloads\fairydust.png"
   inkscape:export-xdpi="145"
   inkscape:export-ydpi="145">
  <defs
     id="defs4" />
  <sodipodi:namedview
     id="base"
     pagecolor="#ffffff"
     bordercolor="#666666"
     borderopacity="1.0"
     inkscape:pageopacity="0"
     inkscape:pageshadow="2"
     inkscape:zoom="0.48801184"
     inkscape:cx="171.0287"
     inkscape:cy="454.94471"
     inkscape:document-units="px"
     inkscape:current-layer="layer1"
     showgrid="false"
     inkscape:window-width="1920"
     inkscape:window-height="1034"
     inkscape:window-x="0"
     inkscape:window-y="22"
     inkscape:window-maximized="0"
     inkscape:document-rotation="0"
     inkscape:pagecheckerboard="true" />
  <metadata
     id="metadata7">
    <rdf:RDF>
      <cc:Work
         rdf:about="">
        <dc:format>image/svg+xml</dc:format>
        <dc:type
           rdf:resource="http://purl.org/dc/dcmitype/StillImage" />
        <dc:title></dc:title>
      </cc:Work>
    </rdf:RDF>
  </metadata>
  <g
     inkscape:label="Ebene 1"
     inkscape:groupmode="layer"
     id="layer1">
    <path
       style="fill:#ffffff;fill-opacity:1;fill-rule:evenodd;stroke:#ffffff;stroke-width:26.66666603;stroke-linecap:round;stroke-linejoin:round;stroke-miterlimit:4;stroke-dasharray:none;stroke-opacity:1"
       d="M 557.9043 161.6543 A 51.531262 39.233826 0 0 0 523.54297 171.71289 C 522.59654 171.88245 521.64503 172.06789 520.69336 172.25 C 520.57411 172.27282 520.45527 172.29339 520.33594 172.31641 C 518.87728 172.59776 517.41057 172.89777 515.93945 173.20898 C 515.67638 173.26463 515.41387 173.31839 515.15039 173.375 C 513.69851 173.68699 512.23959 174.01592 510.77539 174.35742 C 510.52292 174.4163 510.27041 174.47539 510.01758 174.53516 C 508.60119 174.86999 507.18003 175.21919 505.75195 175.58203 C 505.38222 175.67596 505.01115 175.77137 504.64062 175.86719 C 503.27369 176.22075 501.90317 176.58529 500.52539 176.96484 C 500.14162 177.07054 499.75571 177.17938 499.37109 177.28711 C 497.94084 177.68782 496.50655 178.09827 495.06445 178.52734 C 494.86128 178.58778 494.65654 178.65188 494.45312 178.71289 C 492.87691 179.18573 491.29564 179.66859 489.70508 180.17578 C 489.60836 180.20661 489.51083 180.24052 489.41406 180.27148 C 482.75345 182.40304 475.96439 184.8432 469.04297 187.59961 C 468.67 187.74811 468.29953 187.88869 467.92578 188.03906 C 466.55915 188.58902 465.18379 189.16315 463.80664 189.73828 C 463.26755 189.96337 462.73017 190.18118 462.18945 190.41016 C 460.88033 190.96465 459.56285 191.53778 458.24414 192.11523 C 457.61094 192.39245 456.97918 192.66862 456.34375 192.95117 C 455.08176 193.51245 453.81381 194.0894 452.54297 194.67188 C 451.81916 195.00356 451.09389 195.33522 450.36719 195.67383 C 449.16852 196.23247 447.96636 196.80324 446.75977 197.38086 C 445.94873 197.76905 445.13496 198.16176 444.32031 198.55859 C 443.18009 199.11412 442.03796 199.67547 440.89062 200.24805 C 439.99742 200.69371 439.10067 201.14939 438.20312 201.60547 C 437.05796 202.18748 435.91205 202.77201 434.75977 203.37109 C 433.88861 203.82393 433.01198 204.28929 432.13672 204.75195 C 430.98668 205.35997 429.83686 205.96474 428.67969 206.58984 C 427.74867 207.0927 426.81066 207.61296 425.875 208.12695 C 424.73474 208.75344 423.59644 209.37248 422.44922 210.01562 C 421.52238 210.53515 420.58766 211.07695 419.65625 211.60742 C 418.49583 212.26842 417.33944 212.91954 416.17188 213.59766 C 414.15648 214.76803 412.13065 215.96364 410.09375 217.18555 C 409.05045 217.81148 407.99627 218.46393 406.94727 219.10352 C 405.82186 219.78961 404.69842 220.468 403.56641 221.16992 C 402.69334 221.71134 401.81256 222.27138 400.93555 222.82227 C 399.61017 223.65469 398.28564 224.48759 396.95117 225.3418 C 396.03995 225.92514 395.12057 226.52362 394.20508 227.11719 C 392.93708 227.93923 391.66882 228.76369 390.39258 229.60547 C 389.42076 230.24652 388.44343 230.90016 387.4668 231.55273 C 386.21026 232.39227 384.95205 233.23697 383.6875 234.0957 C 382.67564 234.78289 381.6596 235.48013 380.64258 236.17969 C 379.41111 237.0267 378.17659 237.88277 376.9375 238.74805 C 375.92832 239.45282 374.91661 240.16195 373.90234 240.87891 C 372.55896 241.82845 371.20979 242.7926 369.85742 243.76367 C 368.95898 244.40884 368.06064 245.05231 367.1582 245.70703 C 365.70907 246.75833 364.25245 247.82818 362.79297 248.9043 C 361.89796 249.56424 361.00439 250.21935 360.10547 250.88867 C 358.70843 251.92885 357.30305 252.99169 355.89648 254.05469 C 354.92766 254.78689 353.96165 255.51082 352.98828 256.25391 C 351.37448 257.48589 349.74943 258.74568 348.12305 260.00781 C 347.41246 260.55926 346.70715 261.09706 345.99414 261.6543 C 343.59529 263.52905 341.18423 265.43223 338.75781 267.37305 C 335.91976 267.04631 333.08242 266.72102 330.24219 266.4082 C 327.40261 266.09546 324.55996 265.79489 321.71484 265.51758 C 321.71484 265.51758 321.71289 265.51758 321.71289 265.51758 C 297.8325 263.19008 273.69753 262.50467 248.31445 269.79492 C 247.98658 269.88909 247.65837 269.96956 247.33008 270.06641 C 235.21587 273.64038 222.81459 279.04941 210.01953 286.98047 C 207.32038 288.65354 204.59853 290.46699 201.86328 292.37109 C 201.35747 292.72321 200.85474 293.05183 200.34766 293.41211 C 200.34766 293.41211 200.3457 293.41406 200.3457 293.41406 C 198.72148 294.5681 197.08875 295.76436 195.45117 297.00391 C 195.50542 301.20757 194.8696 305.76014 196.85156 309 C 197.30919 309.74768 197.90602 310.42403 198.68359 311.01172 C 188.13677 316.0454 177.73715 321.52305 167.99414 328.9668 C 165.07148 331.19966 162.20701 333.61043 159.41602 336.23828 C 158.48594 337.11406 157.56382 338.01567 156.65039 338.94141 C 155.73661 339.86748 154.83165 340.81776 153.93555 341.79688 C 153.03913 342.77632 152.15311 343.78279 151.27539 344.81836 C 151.1007 344.95462 150.93797 345.09751 150.78711 345.24414 C 150.03282 345.9773 149.57215 346.8365 149.36719 347.79688 C 149.24421 348.3731 149.2132 348.98427 149.26562 349.62695 C 149.28309 349.84182 149.30987 350.05981 149.3457 350.28125 C 149.63147 352.0473 150.491 354.01496 151.76562 356.07617 C 152.40293 357.10677 153.14386 358.16116 153.96875 359.22461 C 154.79365 360.28807 155.70305 361.36065 156.67578 362.42969 C 157.6485 363.49871 158.68483 364.56402 159.76562 365.61133 C 160.30603 366.13499 160.85605 366.6529 161.41602 367.16602 C 161.41602 367.16602 161.41797 367.16602 161.41797 367.16602 C 161.97759 367.6788 162.54495 368.18671 163.11914 368.68555 C 163.69406 369.18503 164.27482 369.67611 164.85938 370.1582 C 165.44356 370.64 166.0303 371.1132 166.61914 371.57422 C 166.61914 371.57422 166.62109 371.57422 166.62109 371.57422 C 167.20953 372.0349 167.7986 372.48535 168.38672 372.92188 C 170.15272 374.23269 171.90637 375.42543 173.58008 376.45703 C 174.13786 376.80082 174.68507 377.12568 175.22266 377.43164 C 176.83594 378.34988 178.34746 379.08934 179.68945 379.60547 C 180.13666 379.77747 180.56357 379.9244 180.9707 380.04492 C 181.78564 380.28627 182.51406 380.42087 183.13867 380.43555 C 183.76286 380.45022 184.28339 380.34641 184.67773 380.10742 C 185.65749 379.4879 186.64118 378.88557 187.63086 378.30078 C 189.61022 377.13119 191.60872 376.02914 193.62695 374.99414 C 195.64519 373.95915 197.68419 372.99014 199.74023 372.08398 C 207.96379 368.45959 216.48573 365.84254 225.27148 364.04883 C 226.36979 363.82462 227.47358 363.6129 228.58008 363.41406 C 240.75144 361.22674 253.41338 360.55257 266.47852 360.91211 C 270.04175 361.01018 273.63455 361.18559 277.25586 361.42773 C 279.67006 361.58916 282.09647 361.77979 284.53516 361.99805 C 284.53516 361.99805 284.53711 361.99805 284.53711 361.99805 C 284.75804 362.01782 284.98199 362.04424 285.20312 362.06445 C 287.4228 362.26736 289.64772 362.4875 291.88672 362.73242 C 295.64989 373.84322 300.37944 384.00452 306.61328 393.56055 C 307.9986 395.68419 309.458 397.77794 310.99805 399.8457 C 314.07824 403.98129 317.47952 408.01301 321.25 411.9707 C 322.19261 412.96012 323.15701 413.9451 324.14648 414.92578 C 324.07882 416.20417 323.99107 417.46882 323.88086 418.7207 C 323.55022 422.47634 323.02851 426.11241 322.31836 429.63867 C 322.31836 429.63867 322.31836 429.64062 322.31836 429.64062 C 322.08175 430.8154 321.82328 431.97856 321.54492 433.12891 C 320.98793 435.43085 320.34801 437.68537 319.625 439.89258 C 316.3713 449.82492 311.44367 458.81737 304.91211 467.06055 C 304.91211 467.06055 304.91211 467.0625 304.91211 467.0625 C 293.30049 481.71652 276.61792 493.99827 255.25195 504.96094 C 255.17222 505.00282 255.10874 505.07591 255.06055 505.17969 C 255.06055 505.17969 255.06055 505.18164 255.06055 505.18164 C 254.14779 507.1582 258.7782 519.93257 263.42969 529.68359 C 263.9194 530.71021 264.40886 531.70305 264.89258 532.64648 C 265.06136 532.97569 265.22363 533.25975 265.39062 533.57617 C 266.18086 535.07347 266.95488 536.45884 267.66992 537.58203 C 267.81341 537.80744 267.95079 538.00996 268.08984 538.2168 C 268.16048 538.32185 268.23333 538.43903 268.30273 538.53906 C 268.30273 538.53906 268.30469 538.54102 268.30469 538.54102 C 268.51027 538.83724 268.71062 539.11187 268.9043 539.36133 C 269.29304 539.86215 269.65524 540.2645 269.98633 540.55273 C 270.15174 540.69673 270.30843 540.8116 270.45703 540.89648 C 270.45703 540.89648 270.45898 540.89648 270.45898 540.89648 C 270.49986 540.91978 270.5347 540.92279 270.57422 540.94141 C 270.67826 540.99055 270.78269 541.04286 270.87695 541.05859 C 271.53009 541.13304 272.20059 541.18711 272.88867 541.22461 C 273.57644 541.26211 274.28056 541.28195 275.00195 541.2832 C 276.44474 541.28575 277.95393 541.21653 279.52344 541.07812 C 279.60202 541.07119 279.68479 541.06001 279.76367 541.05273 C 280.47204 540.9874 281.18951 540.91134 281.92188 540.81836 C 282.07867 540.79845 282.24252 540.76921 282.40039 540.74805 C 283.06228 540.65932 283.72786 540.56757 284.4082 540.45703 C 284.52608 540.43787 284.64916 540.41238 284.76758 540.39258 C 285.48104 540.27327 286.19896 540.14848 286.93164 540.00586 C 287.2816 539.93774 287.64188 539.85657 287.99609 539.7832 C 288.52048 539.67458 289.04073 539.57118 289.57422 539.45117 C 289.86531 539.38569 290.16525 539.30907 290.45898 539.24023 C 291.08667 539.09313 291.71407 538.94742 292.35352 538.78516 C 292.5432 538.73702 292.739 538.68031 292.92969 538.63086 C 293.66413 538.44038 294.40138 538.24893 295.15039 538.03906 C 295.34158 537.98549 295.53836 537.92396 295.73047 537.86914 C 297.40061 537.39255 299.09999 536.87367 300.83594 536.30469 C 301.21671 536.17989 301.60455 536.04515 301.98828 535.91602 C 302.63344 535.6989 303.2784 535.48509 303.93164 535.25586 C 304.1439 535.18138 304.36113 535.09919 304.57422 535.02344 C 305.37056 534.74034 306.16905 534.45486 306.97656 534.1543 C 307.15998 534.08603 307.34728 534.01056 307.53125 533.94141 C 308.3741 533.62455 309.22013 533.30408 310.07422 532.96875 C 310.16915 532.93148 310.26626 532.89101 310.36133 532.85352 C 311.26018 532.49897 312.1619 532.13815 313.07227 531.76367 C 313.53904 531.57169 314.01084 531.36901 314.48047 531.17188 C 315.0791 530.92056 315.67622 530.67169 316.2793 530.41211 C 316.75468 530.20751 317.23488 529.99287 317.71289 529.7832 C 318.29057 529.5298 318.86593 529.28024 319.44727 529.01953 C 320.00309 528.77029 320.56405 528.51169 321.12305 528.25586 C 321.65664 528.01163 322.18829 527.77163 322.72461 527.52148 C 323.15138 527.32245 323.58136 527.11485 324.00977 526.91211 C 324.70763 526.58183 325.40547 526.25403 326.10742 525.91406 C 326.48226 525.73254 326.8604 525.54363 327.23633 525.35938 C 327.92535 525.02164 328.61223 524.68466 329.30469 524.33789 C 329.8938 524.04291 330.48674 523.7389 331.07812 523.4375 C 331.57925 523.18207 332.0794 522.9299 332.58203 522.66992 C 333.81242 522.0336 335.05476 521.35435 336.29297 520.69141 C 337.31713 520.14299 338.33484 519.61295 339.36328 519.04688 C 340.80385 518.25407 342.25252 517.42196 343.69922 516.5957 C 344.50654 516.13455 345.31056 515.69194 346.11914 515.2207 C 347.48564 514.42443 348.85237 513.58977 350.2207 512.76562 C 351.14932 512.20625 352.07726 511.66356 353.00586 511.0918 C 354.28398 510.30492 355.55942 509.48531 356.83594 508.67578 C 357.82332 508.04953 358.81142 507.43813 359.79688 506.79883 C 361.22224 505.87428 362.63941 504.91947 364.05859 503.96875 C 364.88076 503.41789 365.70597 502.88156 366.52539 502.32227 C 368.0642 501.27211 369.58862 500.19187 371.11523 499.11328 C 371.81222 498.62078 372.51504 498.14075 373.20898 497.64258 C 375.35871 496.09953 377.49496 494.53174 379.60938 492.9375 C 379.64319 492.912 379.67713 492.88684 379.71094 492.86133 C 380.76669 492.06468 381.81616 491.26163 382.86133 490.45312 C 382.87163 490.44516 382.88228 490.43766 382.89258 490.42969 C 385.04054 488.7677 387.164 487.08118 389.25977 485.37305 C 389.2799 485.35664 389.30019 485.34063 389.32031 485.32422 C 390.35258 484.48246 391.37678 483.63521 392.39453 482.7832 C 392.42079 482.76121 392.4464 482.73879 392.47266 482.7168 C 393.48357 481.86994 394.48704 481.01845 395.48242 480.16211 C 395.4975 480.14913 395.51227 480.13602 395.52734 480.12305 C 415.93372 462.55997 432.9357 443.07423 441.47852 424.30078 C 441.47852 424.30078 441.48047 424.29883 441.48047 424.29883 C 441.89335 423.39142 442.28351 422.4858 442.65625 421.58203 C 442.67691 421.53192 442.69821 421.48174 442.71875 421.43164 C 443.0946 420.515 443.44993 419.60169 443.7832 418.68945 C 443.7882 418.67578 443.79189 418.66211 443.79688 418.64844 C 444.11268 417.78243 444.40723 416.91812 444.68359 416.05664 C 444.69986 416.00594 444.7202 415.95498 444.73633 415.9043 L 445.12695 414.81836 C 445.63315 414.72638 446.13212 414.62848 446.63672 414.53516 C 448.04613 414.2745 449.45655 414.01333 450.85352 413.74219 C 452.24818 413.4715 453.62943 413.19134 455.01172 412.91016 C 455.50976 412.80884 456.01332 412.71205 456.50977 412.60938 C 460.24501 411.83681 463.93537 411.02621 467.58008 410.17578 C 467.59321 410.17272 467.60601 410.16908 467.61914 410.16602 C 469.43532 409.74206 471.23942 409.30869 473.0332 408.86523 C 473.04568 408.86215 473.05784 408.85855 473.07031 408.85547 C 474.86383 408.4119 476.64678 407.95927 478.41797 407.49609 C 478.4304 407.49284 478.44265 407.48958 478.45508 407.48633 C 480.226 407.02304 481.98573 406.54942 483.73438 406.06641 C 483.74676 406.06299 483.7591 406.06006 483.77148 406.05664 C 485.52047 405.57335 487.25761 405.07931 488.98438 404.57617 C 488.9961 404.57275 489.0078 404.56982 489.01953 404.56641 C 490.74587 404.06322 492.46183 403.55048 494.16602 403.02734 C 494.17787 403.0237 494.18932 403.01927 494.20117 403.01562 C 495.90569 402.4922 497.59884 401.95952 499.28125 401.41602 C 499.29247 401.41239 499.30324 401.40792 499.31445 401.4043 C 500.99662 400.8607 502.668 400.30793 504.32812 399.74414 C 506.00959 399.1731 507.68093 398.58991 509.33984 397.99805 C 510.97867 397.41335 512.60773 396.81997 514.22461 396.21484 C 514.2345 396.21114 514.24402 396.20683 514.25391 396.20312 C 515.87057 395.5979 517.47554 394.98318 519.07031 394.35742 C 519.08014 394.35357 519.08978 394.34956 519.09961 394.3457 C 520.69418 393.71984 522.27882 393.08206 523.85156 392.43555 C 523.86132 392.43153 523.8711 392.42784 523.88086 392.42383 C 525.45395 391.77699 527.01509 391.12074 528.56641 390.45312 C 528.57555 390.44919 528.58461 390.44534 528.59375 390.44141 C 530.14487 389.7737 531.68544 389.09484 533.21484 388.40625 C 533.22391 388.40217 533.23312 388.39861 533.24219 388.39453 C 534.77195 387.7056 536.29074 387.00682 537.79883 386.29688 C 537.80729 386.29289 537.81576 386.28914 537.82422 386.28516 C 539.33267 385.57487 540.82958 384.85447 542.31641 384.12305 C 542.32427 384.11918 542.33198 384.1152 542.33984 384.11133 C 543.82651 383.37982 545.30248 382.63752 546.76758 381.88477 C 546.77537 381.88076 546.78323 381.87705 546.79102 381.87305 C 548.25647 381.11994 549.71035 380.35651 551.1543 379.58203 C 551.16072 379.57858 551.16935 379.57376 551.17578 379.57031 C 552.61958 378.79575 554.05227 378.00893 555.47461 377.21289 C 555.48174 377.2089 555.48896 377.20517 555.49609 377.20117 C 556.91879 376.40476 558.33113 375.59926 559.73242 374.78125 C 559.73899 374.77741 559.74538 374.77337 559.75195 374.76953 C 561.15311 373.95143 562.54402 373.12107 563.92383 372.28125 C 563.93033 372.27729 563.93686 372.27349 563.94336 372.26953 C 565.32304 371.42963 566.69238 370.57853 568.05078 369.7168 C 568.0572 369.71272 568.06389 369.70915 568.07031 369.70508 C 569.42905 368.84297 570.77578 367.97 572.11328 367.08594 C 572.11917 367.08205 572.12497 367.07811 572.13086 367.07422 C 573.46824 366.19007 574.79512 365.29489 576.11133 364.38867 C 576.11713 364.38467 576.1231 364.38095 576.12891 364.37695 C 577.44544 363.47035 578.75147 362.5538 580.04688 361.625 C 580.05217 361.6212 580.0572 361.61708 580.0625 361.61328 C 581.3578 360.6844 582.64373 359.74415 583.91797 358.79297 C 583.92319 358.78907 583.92837 358.78515 583.93359 358.78125 C 585.20773 357.82999 586.47148 356.86626 587.72461 355.89258 C 587.72975 355.88858 587.73509 355.88486 587.74023 355.88086 C 588.99327 354.9071 590.23471 353.92207 591.4668 352.92578 C 591.47186 352.92169 591.47736 352.91815 591.48242 352.91406 C 592.71481 351.91737 593.93695 350.90998 595.14844 349.89062 C 595.15303 349.88676 595.15752 349.88277 595.16211 349.87891 C 596.37389 348.85915 597.5747 347.82769 598.76562 346.78516 C 598.76978 346.78152 598.77319 346.77707 598.77734 346.77344 C 599.96819 345.73083 601.15026 344.67878 602.32031 343.61328 C 602.32439 343.60956 602.32795 343.60528 602.33203 343.60156 C 603.50201 342.53599 604.6613 341.45772 605.81055 340.36914 C 605.81456 340.36534 605.81826 340.36122 605.82227 340.35742 C 606.9721 339.26813 608.11109 338.16907 609.24023 337.05664 C 609.24286 337.05406 609.24738 337.04946 609.25 337.04688 C 610.37843 335.93502 611.49765 334.81087 612.60547 333.67578 C 612.60932 333.67183 612.61333 333.66801 612.61719 333.66406 C 613.72526 332.52857 614.82265 331.38151 615.91016 330.22266 C 615.91363 330.21896 615.91645 330.21464 615.91992 330.21094 C 617.00736 329.05201 618.0854 327.88161 619.15234 326.69922 C 619.15574 326.69545 619.15871 326.69127 619.16211 326.6875 C 620.2296 325.50434 621.28696 324.31028 622.33398 323.10352 C 622.33671 323.10037 622.33907 323.09689 622.3418 323.09375 C 623.38878 321.88692 624.42655 320.66805 625.45312 319.4375 C 625.45579 319.4343 625.45827 319.43093 625.46094 319.42773 C 626.48747 318.19712 627.50358 316.95562 628.50977 315.70117 C 628.51237 315.69793 628.51498 315.69465 628.51758 315.69141 C 629.52372 314.43688 630.52 313.1691 631.50586 311.89062 C 631.5084 311.88733 631.51113 311.88415 631.51367 311.88086 C 632.50004 310.60159 633.47528 309.31116 634.44141 308.00781 C 634.44334 308.0052 634.44533 308.00261 634.44727 308 C 635.41304 306.69701 636.3708 305.38186 637.31641 304.05469 C 637.3186 304.05161 637.32007 304.048 637.32227 304.04492 C 637.98776 303.1108 638.64134 302.16295 639.29688 301.2168 C 639.57484 300.8156 639.85859 300.42094 640.13477 300.01758 C 641.06018 298.66598 641.9755 297.30179 642.88086 295.92578 C 642.88294 295.92262 642.88464 295.91918 642.88672 295.91602 C 643.79254 294.53918 644.68842 293.15138 645.57422 291.75 C 645.57576 291.74756 645.57658 291.74463 645.57812 291.74219 C 646.26269 290.6591 646.93673 289.56265 647.60938 288.46484 C 647.80855 288.13978 648.01281 287.8205 648.21094 287.49414 C 649.07673 286.06799 649.9334 284.62866 650.7793 283.17773 C 650.78076 283.17523 650.78174 283.17242 650.7832 283.16992 C 651.62907 281.71894 652.46498 280.25516 653.29102 278.7793 C 653.29243 278.77677 653.29351 278.77401 653.29492 278.77148 C 653.58614 278.25114 653.86945 277.72071 654.1582 277.19727 C 654.68976 276.23367 655.22481 275.27296 655.74805 274.29883 C 656.55467 272.79707 657.35178 271.28275 658.13867 269.75586 C 658.1396 269.75406 658.1397 269.7518 658.14062 269.75 C 658.9275 268.22307 659.70546 266.685 660.47266 265.13281 C 662.00969 262.02313 663.50641 258.86211 664.96484 255.65039 C 665.04548 255.47282 665.12273 255.29117 665.20312 255.11328 C 667.30298 250.46711 669.32448 245.71877 671.26172 240.85742 C 671.93189 239.17569 672.59136 237.48114 673.24219 235.77344 C 673.24219 235.77344 673.24219 235.77148 673.24219 235.77148 C 673.89301 234.06377 674.53642 232.34318 675.16797 230.60938 C 675.16797 230.60938 675.16797 230.60742 675.16797 230.60742 C 675.79951 228.87361 676.42088 227.1272 677.0332 225.36719 C 678.25819 221.84615 679.44532 218.27109 680.59375 214.64453 C 680.59375 214.64453 680.59375 214.64258 680.59375 214.64258 C 680.69823 214.26395 680.8427 213.87786 681.02539 213.48242 C 681.57349 212.29611 682.47096 211.03185 683.69922 209.68164 C 684.1086 209.23157 684.5548 208.77242 685.03711 208.30273 C 690.34294 203.13627 700.01993 196.76307 713.18945 188.7168 C 709.58146 189.79174 705.78156 191.0915 702.00781 192.36328 C 691.1578 196.01939 680.49859 199.44669 675.07617 196.6582 C 675.07617 196.6582 675.07422 196.6582 675.07422 196.6582 C 674.83847 196.53689 674.61397 196.40312 674.39844 196.25781 C 672.17875 195.08428 669.98722 193.95652 667.82422 192.86914 C 666.68121 192.29448 665.5669 191.76194 664.43945 191.21094 C 663.43312 190.71919 662.41396 190.20743 661.41992 189.73438 C 660.3957 189.24686 659.39608 188.79797 658.38477 188.33008 C 657.29129 187.8243 656.18789 187.3014 655.10938 186.81836 C 654.12336 186.37661 653.16116 185.97179 652.1875 185.54883 C 651.1416 185.09465 650.0845 184.62606 649.05273 184.19336 C 647.79576 183.666 646.56635 183.17754 645.33008 182.68164 C 644.62282 182.39808 643.90367 182.09758 643.20312 181.82422 C 641.86371 181.30129 640.54956 180.81616 639.23438 180.33008 C 638.63785 180.10974 638.03104 179.87494 637.43945 179.66211 C 635.98258 179.13762 634.55231 178.65142 633.125 178.17188 C 632.72143 178.03639 632.30943 177.88779 631.9082 177.75586 C 630.41619 177.26487 628.94833 176.81154 627.48828 176.36914 C 627.14893 176.26641 626.80249 176.15287 626.46484 176.05273 C 624.90616 175.59004 623.37234 175.16586 621.84961 174.75781 C 621.6387 174.70136 621.42312 174.63745 621.21289 174.58203 C 619.6599 174.17219 618.12949 173.7973 616.61328 173.44336 C 616.43019 173.40067 616.2431 173.35243 616.06055 173.31055 C 614.40005 172.92912 612.7637 172.58125 611.14648 172.26562 C 611.13591 172.26356 611.12581 172.26182 611.11523 172.25977 C 609.55376 171.95537 608.01423 171.68586 606.49219 171.44141 C 606.39187 171.42532 606.2896 171.40645 606.18945 171.39062 C 604.66566 171.14938 603.16285 170.94026 601.67773 170.75781 C 601.60393 170.74876 601.52878 170.73742 601.45508 170.72852 C 599.91014 170.54148 598.38685 170.38659 596.88281 170.26172 C 596.87225 170.26084 596.86212 170.26064 596.85156 170.25977 C 595.34107 170.13476 593.85115 170.04047 592.38086 169.97656 C 592.37558 169.97633 592.37051 169.97679 592.36523 169.97656 C 591.36358 169.93317 590.37207 169.90433 589.38867 169.88867 A 51.531262 39.233826 0 0 0 557.9043 161.6543 z M 269.59766 367.96094 C 269.20005 367.96095 268.80337 367.96978 268.4082 367.98633 C 267.68298 368.0167 266.96296 368.08297 266.24609 368.16797 C 266.05339 368.19082 265.86202 368.22131 265.66992 368.24805 C 265.13169 368.32295 264.59589 368.41064 264.0625 368.51562 C 263.85444 368.55657 263.64677 368.59907 263.43945 368.64453 C 262.88577 368.76595 262.33543 368.90544 261.78711 369.05859 C 261.63238 369.10181 261.47656 369.13788 261.32227 369.18359 C 260.61903 369.39193 259.9188 369.62358 259.22461 369.88281 C 259.12846 369.91872 259.03348 369.96118 258.9375 369.99805 C 258.35113 370.22329 257.76921 370.46791 257.18945 370.72852 C 256.98578 370.82007 256.78293 370.91588 256.58008 371.01172 C 256.09319 371.24177 255.60906 371.48387 255.12695 371.73828 C 254.9238 371.84548 254.71987 371.94909 254.51758 372.06055 C 253.92494 372.38709 253.3352 372.73131 252.75 373.09375 C 252.68012 373.13703 252.60884 373.17496 252.53906 373.21875 C 251.8847 373.62937 251.23667 374.0673 250.5918 374.52148 C 250.42029 374.64228 250.25091 374.77072 250.08008 374.89453 C 249.59853 375.24356 249.11869 375.60198 248.64258 375.97461 C 248.44401 376.13002 248.24645 376.28782 248.04883 376.44727 C 247.58835 376.81879 247.13104 377.20265 246.67578 377.5957 C 246.4932 377.75333 246.30868 377.90538 246.12695 378.06641 C 245.51125 378.612 244.9008 379.17599 244.29492 379.75977 C 244.20588 379.84555 244.11812 379.93684 244.0293 380.02344 C 243.51339 380.52641 243.00082 381.04252 242.49219 381.57227 C 242.29105 381.78175 242.09062 381.99541 241.89062 382.20898 C 241.47793 382.64974 241.06793 383.09877 240.66016 383.55664 C 240.46622 383.7744 240.2729 383.99134 240.08008 384.21289 C 239.59592 384.76922 239.11569 385.33824 238.63867 385.91797 C 238.53861 386.03958 238.43764 386.15668 238.33789 386.2793 C 237.76463 386.98399 237.19552 387.70614 236.63281 388.44336 C 236.47521 388.64983 236.32083 388.86331 236.16406 389.07227 C 235.76096 389.60959 235.36043 390.15364 234.96289 390.70703 C 234.76259 390.98585 234.56216 391.26603 234.36328 391.54883 C 233.9625 392.11874 233.56488 392.6975 233.16992 393.2832 C 233.03057 393.48986 232.89058 393.69376 232.75195 393.90234 C 231.66766 395.53382 230.60531 397.22401 229.56641 398.9668 C 229.40363 399.23986 229.24368 399.51733 229.08203 399.79297 C 228.72082 400.40891 228.36137 401.02975 228.00586 401.6582 C 227.83475 401.96068 227.66393 402.26306 227.49414 402.56836 C 227.29334 402.92943 227.09737 403.29913 226.89844 403.66406 C 226.23523 404.88068 225.58167 406.11563 224.93945 407.37305 C 224.82434 407.59843 224.70623 407.81829 224.5918 408.04492 C 223.86965 409.47514 223.16539 410.93486 222.4707 412.41211 C 222.32608 412.71964 222.18248 413.02845 222.03906 413.33789 C 221.335 414.85705 220.63954 416.39082 219.96484 417.95312 C 217.04981 419.79141 214.12405 421.62072 211.19141 423.44141 C 167.20186 450.75163 121.49764 476.34615 82.044922 508.19336 C 88.8225 504.95579 95.574991 501.70075 102.30859 498.45898 C 109.04166 495.21748 115.75718 491.98894 122.45898 488.80273 C 132.5125 484.02305 142.53963 479.33944 152.55859 474.85156 C 172.59589 465.8761 192.60706 457.68348 212.76367 451.08008 C 214.44344 450.52978 216.12475 449.99067 217.80664 449.46289 C 226.21608 446.82402 234.6535 444.47301 243.13086 442.4668 C 267.80223 468.3844 282.39756 456.38587 293.91211 439.05859 C 298.41789 432.27837 302.45203 424.68271 306.43359 418.22266 L 301.70898 407.79102 C 301.72978 407.75731 301.75079 407.7211 301.77148 407.6875 L 296.89062 396.93359 L 289.79492 381.29688 C 289.75709 381.27605 289.71944 381.26079 289.68164 381.24023 L 285.69141 372.42969 C 284.88353 371.98414 284.07958 371.57936 283.2793 371.20312 C 283.03273 371.08722 282.78881 370.98833 282.54297 370.87891 C 281.99138 370.63337 281.44044 370.3949 280.89258 370.18164 C 280.31066 369.95518 279.73 369.73945 279.15234 369.54883 C 279.06305 369.51936 278.97395 369.49347 278.88477 369.46484 C 277.55832 369.03921 276.2427 368.70683 274.93945 368.46484 C 274.83274 368.44503 274.7257 368.42291 274.61914 368.4043 C 274.004 368.29686 273.39301 368.21227 272.7832 368.14453 C 272.66139 368.13099 272.53957 368.1194 272.41797 368.10742 C 271.81171 368.04776 271.20828 368.00364 270.60742 367.98242 C 270.50303 367.97873 270.39915 367.97911 270.29492 367.97656 C 270.06253 367.9709 269.82922 367.96093 269.59766 367.96094 z "
       transform="scale(0.9375)"
       id="path4167" />
  </g>
</svg>
